HIERARCHY
ROOT Hips
{
	OFFSET 0.000000 0.000000 0.000000
	CHANNELS 6 Xposition Yposition Zposition Zrotation Yrotation Xrotation 
	JOINT Spine1
	{
		OFFSET -0.013727 5.003762 -0.053727
		CHANNELS 3 Zrotation Yrotation Xrotation
		JOINT Spine2
		{
			OFFSET -0.000000 7.125302 -0.029825
			CHANNELS 3 Zrotation Yrotation Xrotation
			JOINT Chest
			{
				OFFSET -0.000001 7.550065 -0.815971
				CHANNELS 3 Zrotation Yrotation Xrotation
				JOINT Neck1
				{
					OFFSET -0.181677 26.311296 -0.553348
					CHANNELS 3 Zrotation Yrotation Xrotation
					JOINT Neck2
					{
						OFFSET -0.000003 7.709398 2.302586
						CHANNELS 3 Zrotation Yrotation Xrotation
						JOINT Head
						{
							OFFSET -0.000005 6.128915 1.953707
							CHANNELS 3 Zrotation Yrotation Xrotation
							JOINT HeadEnd
							{
								OFFSET 0.003598 16.065401 -1.835380
								CHANNELS 3 Zrotation Yrotation Xrotation
								End Site
								{
									OFFSET 0.000000 0.000000 0.000000
								}
							}
							JOINT Jaw
							{
								OFFSET 0.002637 0.475591 3.094941
								CHANNELS 3 Zrotation Yrotation Xrotation
								End Site
								{
									OFFSET 0.000000 0.000000 0.000000
								}
							}
							JOINT LeftEye
							{
								OFFSET 3.206380 5.380209 7.586882
								CHANNELS 3 Zrotation Yrotation Xrotation
								End Site
								{
									OFFSET 0.000000 0.000000 0.000000
								}
							}
							JOINT RightEye
							{
								OFFSET -3.222440 5.361867 7.558234
								CHANNELS 3 Zrotation Yrotation Xrotation
								End Site
								{
									OFFSET 0.000000 0.000000 0.000000
								}
							}
						}
					}
				}
				JOINT LeftShoulder
				{
					OFFSET 1.621651 23.237164 5.113413
					CHANNELS 3 Zrotation Yrotation Xrotation
					JOINT LeftArm
					{
						OFFSET 14.919845 0.000000 -5.502326
						CHANNELS 3 Zrotation Yrotation Xrotation
						JOINT LeftForeArm
						{
							OFFSET 28.739309 0.000003 -0.002588
							CHANNELS 3 Zrotation Yrotation Xrotation
							JOINT LeftHand
							{
								OFFSET 27.093979 -0.000003 0.002609
								CHANNELS 3 Zrotation Yrotation Xrotation
								JOINT LeftHandThumb1
								{
									OFFSET 2.276480 -1.392045 3.191414
									CHANNELS 3 Zrotation Yrotation Xrotation
									JOINT LeftHandThumb2
									{
										OFFSET 4.012841 -1.828126 1.641655
										CHANNELS 3 Zrotation Yrotation Xrotation
										JOINT LeftHandThumb3
										{
											OFFSET 2.798516 -0.000000 -0.000003
											CHANNELS 3 Zrotation Yrotation Xrotation
											JOINT LeftHandThumbEnd
											{
												OFFSET 3.180790 -0.000001 0.000002
												CHANNELS 3 Zrotation Yrotation Xrotation
												End Site
												{
													OFFSET 0.000000 0.000000 0.000000
												}
											}
										}
									}
								}
								JOINT LeftHandIndex1
								{
									OFFSET 3.247553 -0.531998 2.296170
									CHANNELS 3 Zrotation Yrotation Xrotation
									JOINT LeftHandIndex2
									{
										OFFSET 6.364578 0.012062 0.178600
										CHANNELS 3 Zrotation Yrotation Xrotation
										JOINT LeftHandIndex3
										{
											OFFSET 3.662366 0.000001 0.000000
											CHANNELS 3 Zrotation Yrotation Xrotation
											JOINT LeftHandIndex4
											{
												OFFSET 2.329241 0.000003 0.000004
												CHANNELS 3 Zrotation Yrotation Xrotation
												JOINT LeftHandIndexEnd
												{
													OFFSET 2.759619 -0.180539 -0.113024
													CHANNELS 3 Zrotation Yrotation Xrotation
													End Site
													{
														OFFSET 0.000000 0.000000 0.000000
													}
												}
											}
										}
									}
								}
								JOINT LeftHandMiddle1
								{
									OFFSET 3.163499 0.240982 1.000333
									CHANNELS 3 Zrotation Yrotation Xrotation
									JOINT LeftHandMiddle2
									{
										OFFSET 6.190778 -0.259276 -1.002549
										CHANNELS 3 Zrotation Yrotation Xrotation
										JOINT LeftHandMiddle3
										{
											OFFSET 4.356522 -0.000006 0.000000
											CHANNELS 3 Zrotation Yrotation Xrotation
											JOINT LeftHandMiddle4
											{
												OFFSET 2.996875 -0.000006 0.000001
												CHANNELS 3 Zrotation Yrotation Xrotation
												JOINT LeftHandMiddleEnd
												{
													OFFSET 2.304294 -0.294572 -0.031740
													CHANNELS 3 Zrotation Yrotation Xrotation
													End Site
													{
														OFFSET 0.000000 0.000000 0.000000
													}
												}
											}
										}
									}
								}
								JOINT LeftHandRing1
								{
									OFFSET 2.882641 -0.053650 -0.322543
									CHANNELS 3 Zrotation Yrotation Xrotation
									JOINT LeftHandRing2
									{
										OFFSET 5.854543 -0.486203 -1.373840
										CHANNELS 3 Zrotation Yrotation Xrotation
										JOINT LeftHandRing3
										{
											OFFSET 4.350580 0.000001 0.000003
											CHANNELS 3 Zrotation Yrotation Xrotation
											JOINT LeftHandRing4
											{
												OFFSET 2.651324 0.000008 0.000003
												CHANNELS 3 Zrotation Yrotation Xrotation
												JOINT LeftHandRingEnd
												{
													OFFSET 1.936110 0.077684 -0.000070
													CHANNELS 3 Zrotation Yrotation Xrotation
													End Site
													{
														OFFSET 0.000000 0.000000 0.000000
													}
												}
											}
										}
									}
								}
								JOINT LeftHandPinky1
								{
									OFFSET 2.865499 -0.310004 -1.600378
									CHANNELS 3 Zrotation Yrotation Xrotation
									JOINT LeftHandPinky2
									{
										OFFSET 5.087853 -1.331141 -1.771231
										CHANNELS 3 Zrotation Yrotation Xrotation
										JOINT LeftHandPinky3
										{
											OFFSET 3.070975 0.000003 0.000001
											CHANNELS 3 Zrotation Yrotation Xrotation
											JOINT LeftHandPinky4
											{
												OFFSET 1.549667 -0.000000 0.000002
												CHANNELS 3 Zrotation Yrotation Xrotation
												JOINT LeftHandPinkyEnd
												{
													OFFSET 1.944894 -0.157802 0.057218
													CHANNELS 3 Zrotation Yrotation Xrotation
													End Site
													{
														OFFSET 0.000000 0.000000 0.000000
													}
												}
											}
										}
									}
								}
							}
						}
					}
				}
				JOINT RightShoulder
				{
					OFFSET -1.380118 23.180309 5.214157
					CHANNELS 3 Zrotation Yrotation Xrotation
					JOINT RightArm
					{
						OFFSET -15.037197 0.000012 -5.545604
						CHANNELS 3 Zrotation Yrotation Xrotation
						JOINT RightForeArm
						{
							OFFSET -28.736639 0.000002 -0.002597
							CHANNELS 3 Zrotation Yrotation Xrotation
							JOINT RightHand
							{
								OFFSET -27.133617 0.000000 0.002613
								CHANNELS 3 Zrotation Yrotation Xrotation
								JOINT RightHandThumb1
								{
									OFFSET -2.274036 -1.383990 3.163127
									CHANNELS 3 Zrotation Yrotation Xrotation
									JOINT RightHandThumb2
									{
										OFFSET -4.011429 -1.827468 1.640914
										CHANNELS 3 Zrotation Yrotation Xrotation
										JOINT RightHandThumb3
										{
											OFFSET -2.794935 -0.000003 -0.000003
											CHANNELS 3 Zrotation Yrotation Xrotation
											JOINT RightHandThumbEnd
											{
												OFFSET -3.183855 0.000003 -0.000000
												CHANNELS 3 Zrotation Yrotation Xrotation
												End Site
												{
													OFFSET 0.000000 0.000000 0.000000
												}
											}
										}
									}
								}
								JOINT RightHandIndex1
								{
									OFFSET -3.253269 -0.520059 2.282866
									CHANNELS 3 Zrotation Yrotation Xrotation
									JOINT RightHandIndex2
									{
										OFFSET -6.341918 0.012473 0.178266
										CHANNELS 3 Zrotation Yrotation Xrotation
										JOINT RightHandIndex3
										{
											OFFSET -3.654876 -0.000008 -0.000001
											CHANNELS 3 Zrotation Yrotation Xrotation
											JOINT RightHandIndex4
											{
												OFFSET -2.327587 -0.000000 -0.000000
												CHANNELS 3 Zrotation Yrotation Xrotation
												JOINT RightHandIndexEnd
												{
													OFFSET -2.761789 -0.180657 -0.113078
													CHANNELS 3 Zrotation Yrotation Xrotation
													End Site
													{
														OFFSET 0.000000 0.000000 0.000000
													}
												}
											}
										}
									}
								}
								JOINT RightHandMiddle1
								{
									OFFSET -3.168107 0.246593 1.001030
									CHANNELS 3 Zrotation Yrotation Xrotation
									JOINT RightHandMiddle2
									{
										OFFSET -6.180830 -0.258835 -1.000896
										CHANNELS 3 Zrotation Yrotation Xrotation
										JOINT RightHandMiddle3
										{
											OFFSET -4.348905 -0.000000 -0.000001
											CHANNELS 3 Zrotation Yrotation Xrotation
											JOINT RightHandMiddle4
											{
												OFFSET -3.000242 -0.000004 -0.000001
												CHANNELS 3 Zrotation Yrotation Xrotation
												JOINT RightHandMiddleEnd
												{
													OFFSET -2.302518 -0.294371 -0.031707
													CHANNELS 3 Zrotation Yrotation Xrotation
													End Site
													{
														OFFSET 0.000000 0.000000 0.000000
													}
												}
											}
										}
									}
								}
								JOINT RightHandRing1
								{
									OFFSET -2.885693 -0.067952 -0.308858
									CHANNELS 3 Zrotation Yrotation Xrotation
									JOINT RightHandRing2
									{
										OFFSET -5.854198 -0.486132 -1.373731
										CHANNELS 3 Zrotation Yrotation Xrotation
										JOINT RightHandRing3
										{
											OFFSET -4.338814 -0.000003 -0.000000
											CHANNELS 3 Zrotation Yrotation Xrotation
											JOINT RightHandRing4
											{
												OFFSET -2.654905 -0.000005 0.000005
												CHANNELS 3 Zrotation Yrotation Xrotation
												JOINT RightHandRingEnd
												{
													OFFSET -1.933570 0.077524 -0.000053
													CHANNELS 3 Zrotation Yrotation Xrotation
													End Site
													{
														OFFSET 0.000000 0.000000 0.000000
													}
												}
											}
										}
									}
								}
								JOINT RightHandPinky1
								{
									OFFSET -2.866429 -0.342799 -1.584145
									CHANNELS 3 Zrotation Yrotation Xrotation
									JOINT RightHandPinky2
									{
										OFFSET -5.091371 -1.332054 -1.772386
										CHANNELS 3 Zrotation Yrotation Xrotation
										JOINT RightHandPinky3
										{
											OFFSET -3.062667 -0.000006 0.000000
											CHANNELS 3 Zrotation Yrotation Xrotation
											JOINT RightHandPinky4
											{
												OFFSET -1.546527 0.000005 -0.000001
												CHANNELS 3 Zrotation Yrotation Xrotation
												JOINT RightHandPinkyEnd
												{
													OFFSET -1.945122 -0.157721 0.057212
													CHANNELS 3 Zrotation Yrotation Xrotation
													End Site
													{
														OFFSET 0.000000 0.000000 0.000000
													}
												}
											}
										}
									}
								}
							}
						}
					}
				}
			}
		}
	}
	JOINT LeftLeg
	{
		OFFSET 10.043214 -8.434526 2.595654
		CHANNELS 3 Zrotation Yrotation Xrotation
		JOINT LeftShin
		{
			OFFSET -0.000001 -43.221752 -0.802912
			CHANNELS 3 Zrotation Yrotation Xrotation
			JOINT LeftFoot
			{
				OFFSET 0.000002 -42.155094 -3.481523
				CHANNELS 3 Zrotation Yrotation Xrotation
				JOINT LeftToeBase
				{
					OFFSET 0.000001 -5.059475 13.231529
					CHANNELS 3 Zrotation Yrotation Xrotation
					JOINT LeftToeEnd
					{
						OFFSET -0.009607 -1.647615 6.513018
						CHANNELS 3 Zrotation Yrotation Xrotation
						End Site
						{
							OFFSET 0.000000 0.000000 0.000000
						}
					}
				}
			}
		}
	}
	JOINT RightLeg
	{
		OFFSET -10.047277 -8.295259 2.620317
		CHANNELS 3 Zrotation Yrotation Xrotation
		JOINT RightShin
		{
			OFFSET 0.000000 -43.362209 -0.805556
			CHANNELS 3 Zrotation Yrotation Xrotation
			JOINT RightFoot
			{
				OFFSET 0.000002 -42.117393 -3.478397
				CHANNELS 3 Zrotation Yrotation Xrotation
				JOINT RightToeBase
				{
					OFFSET -0.000001 -5.079609 13.284196
					CHANNELS 3 Zrotation Yrotation Xrotation
					JOINT RightToeEnd
					{
						OFFSET 0.009532 -1.634383 6.460591
						CHANNELS 3 Zrotation Yrotation Xrotation
						End Site
						{
							OFFSET 0.000000 0.000000 0.000000
						}
					}
				}
			}
		}
	}
}
MOTION
Frames: 4
Frame Time: 0.033333
-4.721298 92.898476 -2.450976 -2.155361 -0.653918 4.051389 0.481540 0.777571 7.087209 -0.784605 1.605654 -3.154897 -1.465252 0.241085 15.100526 -5.313762 6.100275 17.313324 1.040026 7.726480 -3.774548 -3.847418 7.741267 -17.920361 0.000077 -0.000023 0.000007 0.005938 -0.047813 -0.081879 0.667323 -3.775792 -10.715571 -0.659600 3.673996 -10.698479 0.773895 -9.792840 17.855272 -53.324726 -35.570045 -29.710007 1.068426 -67.515068 -1.515091 29.907951 2.201507 -23.368347 -5.882102 9.861278 0.702589 -10.936862 -0.360574 7.156198 0.000001 8.774813 -0.000001 -16.310087 17.598473 5.706390 -1.844034 2.498502 -2.507276 -10.163590 4.678940 4.621105 -20.975996 -0.000004 0.000004 -21.226255 2.451692 -3.593992 0.000000 -0.000007 -0.000000 -1.362680 2.240797 -0.746323 -21.334892 0.584908 3.008322 -13.821198 -0.000003 0.000003 -23.887131 -0.249077 -0.839479 -60.601299 2.500261 -1.316535 -0.294026 1.679686 0.833256 -14.218195 0.093214 1.300580 -34.212006 -0.287562 0.967173 -20.033180 0.964537 1.212843 0.000001 -0.000000 -0.000000 -3.440385 0.788232 0.501655 -15.928167 -3.167306 2.999705 -6.338817 -0.000001 0.000002 -18.123413 3.648176 -4.905660 -0.000004 -0.000000 -0.000002 -4.926507 15.879238 13.084816 14.305134 60.212048 -47.707329 178.738739 75.493118 177.944443 -16.463947 14.240171 12.917959 2.243539 -5.255032 -3.180155 14.282875 -0.826593 6.952496 -0.000001 -12.690590 0.000001 16.200502 -17.198551 2.557438 1.665665 -1.955920 -2.878296 4.727794 -4.170583 4.993919 11.020511 0.000004 -0.000001 12.109032 -3.735709 -2.866779 0.000002 -0.000000 0.000000 1.291982 -1.928548 -1.498088 14.800113 0.567467 3.865604 14.242553 -1.341733 -6.660648 19.631937 0.143925 -0.648243 49.696747 -0.499714 -5.786845 0.353029 -1.511148 -0.031940 20.222767 3.684307 2.316628 18.787243 0.000004 -0.000000 10.751610 -0.479868 1.397904 -0.000000 -0.000000 -0.000000 3.273804 0.305947 -0.580110 21.486790 11.830363 2.266131 8.162915 0.000001 -0.000000 18.399050 -3.798980 -4.940567 0.000003 0.000000 -0.000001 8.165338 26.210257 -38.152420 -0.365031 -0.536924 26.589180 -7.113293 1.762320 12.401218 1.641175 -2.007135 1.105814 -0.000000 0.000000 0.000002 -10.942752 -21.909498 -13.964987 0.335458 0.560371 36.537960 16.981037 1.038391 -20.914042 -1.431578 0.828144 0.538729 0.000000 0.000000 -0.000001 
-4.071722 93.028557 -2.020963 -2.144989 -0.934619 4.321239 0.438750 0.808220 7.023521 -0.747356 1.698003 -3.183963 -1.519010 0.373704 15.078634 -5.448770 6.096193 17.027159 0.995555 7.697084 -3.751172 -3.903721 7.797262 -17.867266 0.000078 -0.000024 0.000007 0.005696 -0.023855 -0.064826 0.658913 -3.748001 -10.680645 -0.652730 3.700144 -10.687634 0.687946 -9.656234 17.765858 -52.910637 -35.712646 -30.017006 1.339053 -67.190514 -1.840643 29.748741 1.915519 -23.426481 -5.882101 9.861279 0.702590 -10.936858 -0.360574 7.156198 -0.000000 8.774815 -0.000001 -16.262980 17.706333 5.809495 -1.844031 2.498503 -2.507276 -10.163589 4.678940 4.621105 -20.975992 -0.000004 0.000002 -21.226248 2.451693 -3.593993 -0.000001 -0.000007 0.000000 -1.362681 2.240796 -0.746323 -21.334887 0.584909 3.008321 -13.821197 -0.000002 0.000002 -23.887125 -0.249077 -0.839481 -60.694183 2.501070 -1.361083 -0.294025 1.679686 0.833255 -14.218190 0.093215 1.300580 -34.211998 -0.287562 0.967171 -20.033176 0.964536 1.212842 0.000000 -0.000000 0.000000 -3.440385 0.788232 0.501655 -15.928167 -3.167307 2.999704 -6.338815 -0.000001 0.000002 -18.123411 3.648178 -4.905662 -0.000004 -0.000000 -0.000002 -4.923390 15.873536 13.128463 14.614046 60.298382 -47.220177 179.009964 75.707504 178.423950 -16.207037 14.292557 12.799008 2.243542 -5.255030 -3.180154 14.282878 -0.826594 6.952496 -0.000000 -12.690590 -0.000001 16.176081 -17.139738 2.570226 1.665667 -1.955920 -2.878296 4.727794 -4.170582 4.993918 11.020513 0.000004 -0.000001 12.109035 -3.735708 -2.866778 0.000001 0.000001 -0.000000 1.291983 -1.928548 -1.498088 14.800111 0.567469 3.865603 14.242554 -1.341734 -6.660648 19.631941 0.143927 -0.648242 49.871956 -0.446291 -5.766366 0.353029 -1.511149 -0.031939 20.222773 3.684306 2.316628 18.787251 0.000005 0.000000 10.751612 -0.479867 1.397904 -0.000000 0.000000 0.000000 3.273803 0.305947 -0.580111 21.486797 11.830361 2.266131 8.162919 0.000002 -0.000000 18.399055 -3.798978 -4.940567 0.000003 0.000000 -0.000001 7.851207 26.131775 -38.313869 -0.353168 -0.509589 27.189302 -6.842434 1.962919 11.356627 1.634486 -2.033275 1.103419 -0.000000 0.000000 0.000002 -11.312380 -21.308363 -13.530130 0.288736 0.538559 35.369709 17.467377 0.593437 -20.434076 -1.437183 0.819426 0.368566 0.000000 0.000001 -0.000001 
-3.296865 93.193596 -1.594195 -2.083392 -1.274223 4.670863 0.362858 0.876969 6.974848 -0.723560 1.730640 -3.197741 -1.612246 0.549194 15.031705 -5.549165 6.145373 16.771465 0.942112 7.698066 -3.730607 -3.953935 7.881034 -18.004816 0.000078 -0.000024 0.000006 0.006447 -0.023645 -0.050892 0.656376 -3.747036 -10.640793 -0.645494 3.695261 -10.656798 0.604086 -9.566590 17.664749 -52.304314 -35.894997 -30.549904 1.370428 -66.689827 -1.875432 29.584229 1.865466 -23.760803 -5.882099 9.861278 0.702590 -10.936860 -0.360576 7.156196 0.000001 8.774813 -0.000002 -16.227142 17.776119 5.857501 -1.844030 2.498503 -2.507276 -10.163592 4.678940 4.621104 -20.975994 -0.000005 0.000002 -21.226254 2.451690 -3.593992 0.000000 -0.000007 0.000000 -1.362680 2.240796 -0.746323 -21.334892 0.584906 3.008320 -13.821197 -0.000004 0.000002 -23.887131 -0.249079 -0.839480 -60.686127 2.506695 -1.396038 -0.294024 1.679686 0.833255 -14.218194 0.093214 1.300579 -34.212002 -0.287567 0.967170 -20.033176 0.964534 1.212842 0.000000 -0.000000 0.000000 -3.440385 0.788232 0.501655 -15.928167 -3.167307 2.999703 -6.338818 -0.000001 0.000001 -18.123415 3.648175 -4.905661 -0.000004 -0.000000 -0.000002 -5.037954 15.917928 13.137320 15.057483 60.504086 -46.760815 178.910553 75.848396 178.519928 -15.969159 14.321111 12.692138 2.243540 -5.255032 -3.180154 14.282877 -0.826592 6.952497 -0.000002 -12.690588 0.000000 16.186535 -17.083418 2.564778 1.665664 -1.955920 -2.878296 4.727793 -4.170582 4.993919 11.020512 0.000004 -0.000001 12.109034 -3.735709 -2.866780 0.000002 0.000001 0.000001 1.291983 -1.928547 -1.498088 14.800111 0.567468 3.865603 14.242551 -1.341733 -6.660648 19.631939 0.143925 -0.648242 49.975609 -0.414407 -5.743488 0.353030 -1.511149 -0.031940 20.222769 3.684305 2.316629 18.787245 0.000004 -0.000000 10.751610 -0.479868 1.397905 -0.000000 0.000000 -0.000000 3.273804 0.305947 -0.580111 21.486792 11.830362 2.266131 8.162917 0.000001 0.000000 18.399052 -3.798979 -4.940566 0.000003 0.000000 -0.000001 7.313653 26.175150 -38.664005 -0.345593 -0.483922 27.940401 -6.594055 2.115529 10.443964 1.631579 -2.050803 1.095312 0.000000 0.000000 0.000002 -11.787836 -20.687334 -13.103874 0.297845 0.575808 33.965462 17.874374 0.124935 -19.803579 -1.438826 0.821690 0.238516 0.000000 0.000000 -0.000001 
-2.476191 93.324989 -1.179401 -1.976759 -1.703031 5.110944 0.263578 0.963267 6.957345 -0.728726 1.799339 -3.204673 -1.751675 0.697654 14.951962 -5.699653 6.202852 16.514490 0.910764 7.739990 -3.752437 -4.007894 8.010246 -18.122526 0.000076 -0.000023 0.000007 0.009217 -0.030065 -0.044069 0.650653 -3.739183 -10.613192 -0.635904 3.680189 -10.629249 0.518933 -9.468788 17.543219 -51.547955 -36.090214 -31.342480 1.099083 -66.041901 -1.632975 29.375278 1.817748 -24.427778 -5.882102 9.861279 0.702589 -10.936858 -0.360574 7.156198 0.000001 8.774812 -0.000001 -16.217539 17.811846 5.872961 -1.844032 2.498502 -2.507276 -10.163589 4.678941 4.621105 -20.975996 -0.000003 0.000002 -21.226255 2.451694 -3.593995 0.000000 -0.000007 -0.000000 -1.362680 2.240797 -0.746323 -21.334892 0.584909 3.008320 -13.821197 -0.000002 0.000002 -23.887131 -0.249078 -0.839482 -60.639050 2.505338 -1.410423 -0.294025 1.679685 0.833255 -14.218190 0.093215 1.300579 -34.212002 -0.287562 0.967169 -20.033176 0.964535 1.212840 0.000000 0.000000 -0.000000 -3.440385 0.788233 0.501655 -15.928169 -3.167306 2.999704 -6.338817 -0.000001 0.000001 -18.123415 3.648178 -4.905662 -0.000004 -0.000000 -0.000002 -5.243982 16.025961 13.077945 15.832727 60.753117 -46.015320 178.526184 75.868729 178.286972 -15.690166 14.251930 12.231515 2.243538 -5.255032 -3.180155 14.282879 -0.826591 6.952496 -0.000004 -12.690587 0.000000 16.246807 -17.113306 2.549779 1.665665 -1.955919 -2.878296 4.727793 -4.170582 4.993918 11.020513 0.000004 -0.000000 12.109030 -3.735707 -2.866779 0.000001 -0.000000 0.000001 1.291985 -1.928548 -1.498088 14.800111 0.567469 3.865603 14.242554 -1.341733 -6.660648 19.631939 0.143927 -0.648243 50.032616 -0.414616 -5.768145 0.353028 -1.511149 -0.031940 20.222771 3.684307 2.316628 18.787247 0.000006 0.000000 10.751612 -0.479867 1.397904 -0.000000 -0.000000 -0.000000 3.273804 0.305947 -0.580110 21.486797 11.830364 2.266133 8.162918 0.000002 -0.000000 18.399055 -3.798977 -4.940567 0.000004 -0.000000 -0.000001 6.611234 26.367521 -39.159447 -0.339031 -0.453406 28.738102 -6.346169 2.211606 9.450934 1.628386 -2.049941 1.148524 -0.000000 -0.000001 0.000002 -12.305312 -20.003830 -12.868653 0.281563 0.593316 32.649597 18.266556 -0.312908 -19.176706 -1.439067 0.853874 0.184987 0.000000 0.000001 -0.000001 
